# xmcd CD database file
#
# Track frame offsets:
#	150
#	11659
#	22262
#	33562
#	47072
#	54757
#	64822
#	75135
#	92677
#	101660
#	110454
#	115627
#	132972
#	140872
#
# Disc length: 1987 seconds
#
# Revision: 3
# Processed by: cddbd v1.4PL0 Copyright (c) Steve Scherf et al.
# Submitted via: CDex 1.50Beta3
#
DISCID=b507c10e
DTITLE=Johnny Cash - Ballad Of Ira Hayes
DYEAR=1996
DGENRE=Country
TTITLE0=Big River
TTITLE1=There You Go
TTITLE2=I Got A Woman
TTITLE3=I Walk The Line
TTITLE4=Hey Porter
TTITLE5=Goodbye Little Darlin'
TTITLE6=Big River Ii
TTITLE7=Ballad Of The Harp Weaver
TTITLE8=Luther Played The Boogie
TTITLE9=Pickin' Time
TTITLE10=Cry Cry Cry
TTITLE11=The Ballad Of Ira Hayes
TTITLE12=I Got Stripes
TTITLE13=Five Feet High and Rising
EXTD=YEAR: 1996
EXTT0=
EXTT1=
EXTT2=
EXTT3=
EXTT4=
EXTT5=
EXTT6=
EXTT7=
EXTT8=
EXTT9=
EXTT10=
EXTT11=
EXTT12=
EXTT13=
PLAYORDER=
